<svg width="21" height="17" viewBox="0 0 21 17" fill="none" xmlns="http://www.w3.org/2000/svg">
<path d="M4.36177 0C3.16354 0 2.27686 1.06577 2.31656 2.22157C2.35471 3.33194 2.30516 4.77017 1.9489 5.94298C1.59157 7.11921 0.987164 7.86429 0 7.95999V9.04001C0.987164 9.13571 1.59157 9.88079 1.9489 11.0571C2.30516 12.2299 2.35471 13.668 2.31656 14.7784C2.27686 15.9341 3.16354 17 4.36193 17H16.6398C17.8381 17 18.7245 15.9342 18.6848 14.7784C18.6468 13.6681 18.6962 12.2299 19.0525 11.0571C19.4101 9.88088 20.0128 9.13563 21 9.04001V7.95999C20.0128 7.86429 19.4101 7.11921 19.0526 5.94298C18.6962 4.77034 18.6468 3.33203 18.6848 2.22157C18.7245 1.06594 17.8381 0 16.6398 0H4.3616H4.36177ZM14.2373 10.4646C14.2373 12.0561 13.0692 13.0213 11.1307 13.0213H7.83054C7.73616 13.0212 7.64566 12.9831 7.57893 12.9153C7.5122 12.8474 7.47471 12.7555 7.47469 12.6596V4.34045C7.47469 4.24451 7.51218 4.1525 7.57893 4.08465C7.64568 4.01681 7.73621 3.97868 7.83062 3.97866H11.1118C12.7282 3.97866 13.789 4.86854 13.789 6.23466C13.789 7.19356 13.0754 8.05202 12.1662 8.20232V8.25242C13.404 8.39038 14.2373 9.26142 14.2373 10.4646ZM10.7707 5.12529H8.88915V7.82619H10.474C11.6991 7.82619 12.3747 7.32486 12.3747 6.42873C12.3747 5.58903 11.7936 5.12529 10.7707 5.12529ZM8.88923 8.89788V11.8743H10.8401C12.1155 11.8743 12.7913 11.3542 12.7913 10.3767C12.7913 9.39905 12.0967 8.89772 10.7581 8.89772H8.88923V8.89788Z" fill="#7E13F8"/>
</svg>
