<svg width="16" height="16" viewBox="0 0 16 16" fill="none" xmlns="http://www.w3.org/2000/svg">
<path d="M12.25 0H3.75C1.67893 0 0 1.67893 0 3.75V12.25C0 14.3211 1.67893 16 3.75 16H12.25C14.3211 16 16 14.3211 16 12.25V3.75C16 1.67893 14.3211 0 12.25 0Z" fill="#394AAB"/>
<path d="M8.37506 2.0625C10.5715 2.0625 12.4892 3.25538 13.5164 5.0285L13.5064 5.01144L10.9221 6.49944C10.4129 5.63737 9.4795 5.05556 8.40875 5.04362L8.37506 5.04344C6.74219 5.04344 5.41844 6.36713 5.41844 7.99994C5.41796 8.51457 5.55241 9.02035 5.80837 9.46681C6.318 10.3565 7.276 10.9566 8.37506 10.9566C9.48081 10.9566 10.4443 10.3489 10.9514 9.44969L10.9391 9.47125L13.5194 10.9661C12.5036 12.7242 10.6121 13.9134 8.44119 13.9371L8.37506 13.9375C6.17163 13.9375 4.24844 12.7373 3.22388 10.9548C2.72369 10.0846 2.4375 9.07575 2.4375 7.99994C2.4375 4.72081 5.09575 2.0625 8.37506 2.0625Z" fill="white"/>
</svg>
