<svg width="16" height="16" viewBox="0 0 16 16" fill="none" xmlns="http://www.w3.org/2000/svg">
<path d="M12.25 0H3.75C1.67893 0 0 1.67893 0 3.75V12.25C0 14.3211 1.67893 16 3.75 16H12.25C14.3211 16 16 14.3211 16 12.25V3.75C16 1.67893 14.3211 0 12.25 0Z" fill="#5865F2"/>
<mask id="mask0_38_17" style="mask-type:luminance" maskUnits="userSpaceOnUse" x="1" y="3" width="14" height="10">
<path d="M1.75 3.1875H14.25V12.8706H1.75V3.1875Z" fill="white"/>
</mask>
<g mask="url(#mask0_38_17)">
<path d="M12.3317 4.04983C11.5213 3.67787 10.6661 3.4126 9.7874 3.26064C9.77942 3.25918 9.77118 3.26027 9.76384 3.26374C9.75651 3.26722 9.75045 3.27291 9.74652 3.28002C9.63665 3.47539 9.5149 3.73039 9.42971 3.93077C8.4689 3.78689 7.51309 3.78689 6.57202 3.93077C6.48677 3.72589 6.36065 3.47539 6.25027 3.28002C6.24621 3.27303 6.24012 3.26743 6.23281 3.26398C6.2255 3.26052 6.21732 3.25935 6.20934 3.26064C5.3306 3.41225 4.47532 3.67754 3.66502 4.04983C3.65813 4.05283 3.65229 4.05784 3.64827 4.0642C2.02777 6.4852 1.5839 8.8467 1.80165 11.179C1.80298 11.1905 1.80882 11.201 1.8179 11.2082C2.88702 11.9934 3.92271 12.4701 4.93915 12.786C4.94706 12.7884 4.95549 12.7882 4.96333 12.7857C4.97116 12.7831 4.97803 12.7782 4.98302 12.7716C5.22346 12.4433 5.43777 12.0971 5.62159 11.733C5.62412 11.728 5.62556 11.7226 5.62583 11.717C5.62609 11.7114 5.62517 11.7058 5.62312 11.7006C5.62107 11.6954 5.61794 11.6907 5.61394 11.6868C5.60994 11.6829 5.60515 11.6799 5.5999 11.678C5.2599 11.549 4.93621 11.3918 4.62484 11.2132C4.61917 11.2099 4.6144 11.2052 4.61097 11.1996C4.60754 11.1939 4.60554 11.1876 4.60515 11.181C4.60476 11.1744 4.60599 11.1679 4.60874 11.1619C4.61149 11.1559 4.61566 11.1507 4.6209 11.1467C4.68659 11.0976 4.75115 11.047 4.81452 10.995C4.82008 10.9904 4.8268 10.9874 4.83393 10.9865C4.84106 10.9855 4.84832 10.9865 4.8549 10.9895C6.90065 11.9235 9.11534 11.9235 11.1369 10.9895C11.1435 10.9863 11.1508 10.9852 11.1581 10.9861C11.1653 10.9869 11.1722 10.9898 11.1778 10.9945C11.2413 11.0468 11.306 11.0976 11.372 11.1467C11.3772 11.1507 11.3814 11.1558 11.3842 11.1618C11.387 11.1677 11.3883 11.1743 11.3879 11.1809C11.3876 11.1874 11.3857 11.1938 11.3823 11.1995C11.3789 11.2051 11.3742 11.2098 11.3685 11.2132C11.057 11.3951 10.7306 11.5504 10.393 11.6775C10.3877 11.6795 10.383 11.6826 10.379 11.6865C10.3751 11.6905 10.372 11.6953 10.37 11.7005C10.368 11.7058 10.3671 11.7114 10.3674 11.717C10.3677 11.7226 10.3692 11.728 10.3718 11.733C10.5588 12.0942 10.772 12.4412 11.0098 12.7711C11.0146 12.7779 11.0215 12.7829 11.0293 12.7856C11.0372 12.7882 11.0457 12.7884 11.0536 12.786C12.075 12.4701 13.1107 11.9934 14.1799 11.2082C14.1845 11.2048 14.1883 11.2005 14.1911 11.1956C14.1939 11.1906 14.1956 11.1851 14.1961 11.1795C14.4568 8.48314 13.7596 6.14095 12.348 4.0647C12.3445 4.05794 12.3388 4.05265 12.3317 4.04983ZM5.92709 9.75889C5.31115 9.75889 4.80365 9.19345 4.80365 8.49901C4.80365 7.80458 5.30134 7.23914 5.92709 7.23914C6.55771 7.23914 7.06027 7.80958 7.0504 8.49901C7.0504 9.19345 6.55277 9.75889 5.92709 9.75889ZM10.0806 9.75889C9.46465 9.75889 8.95721 9.19345 8.95721 8.49901C8.95721 7.80458 9.45484 7.23914 10.0806 7.23914C10.7112 7.23914 11.2138 7.80958 11.204 8.49901C11.204 9.19345 10.7112 9.75889 10.0806 9.75889Z" fill="white"/>
</g>
</svg>
