<svg width="11" height="14" viewBox="0 0 11 14" fill="none" xmlns="http://www.w3.org/2000/svg">
<path d="M9 0H11V2H9V0ZM9 4V10.065C8.99868 10.5778 8.79439 11.0692 8.43179 11.4318C8.0692 11.7944 7.57779 11.9987 7.065 12H7V14H7.065C7.58183 14.0003 8.09363 13.8987 8.57117 13.701C9.0487 13.5033 9.4826 13.2135 9.84805 12.8481C10.2135 12.4826 10.5033 12.0487 10.701 11.5712C10.8987 11.0936 11.0003 10.5818 11 10.065V4H9ZM5 0H7V10H5V0Z" fill="#43A047"/>
<path d="M3.919 5C4.20558 5.0004 4.4803 5.11442 4.68294 5.31706C4.88559 5.5197 4.9996 5.79442 5 6.081V8.5585L4.615 8.687C4.16102 8.8384 3.67326 8.85714 3.209 8.741C2.86349 8.65482 2.55675 8.4555 2.33765 8.17478C2.11854 7.89406 1.99969 7.5481 2 7.192V6.9185C2.0004 6.40972 2.20272 5.92189 2.56253 5.56218C2.92234 5.20246 3.41022 5.00027 3.919 5ZM3.919 3C2.87978 3.00027 1.8832 3.41318 1.14832 4.14796C0.413435 4.88275 0.000397796 5.87928 1.71151e-07 6.9185V7.192C-0.00024724 7.99409 0.267749 8.77323 0.761351 9.40545C1.25495 10.0377 1.94581 10.4867 2.724 10.681C3.55727 10.8894 4.43268 10.8557 5.2475 10.584L7 10V6.081C7.00013 5.67636 6.92053 5.27566 6.76574 4.9018C6.61095 4.52793 6.38401 4.18823 6.09789 3.90211C5.81177 3.61599 5.47207 3.38905 5.0982 3.23426C4.72434 3.07947 4.32364 2.99987 3.919 3Z" fill="#43A047"/>
</svg>
