<svg width="20" height="15" viewBox="0 0 20 15" fill="none" xmlns="http://www.w3.org/2000/svg">
<path d="M19.81 5.42C19.75 5.38 19.25 4.99 18.17 4.99C17.89 4.99 17.61 5.02 17.33 5.07C17.12 3.67 15.95 2.96 15.9 2.93L15.61 2.76L15.43 3.03C15.19 3.39 15 3.8 14.92 4.22C14.72 5.02 14.84 5.78 15.25 6.43C14.76 6.71 13.96 6.78 13.79 6.78H0.62C0.28 6.78 0 7.06 0 7.41C0 8.56 0.18 9.71 0.58 10.79C1.03 11.98 1.71 12.86 2.58 13.4C3.56 14 5.17 14.34 7 14.34C7.79 14.34 8.61 14.27 9.42 14.12C10.54 13.92 11.62 13.53 12.61 12.96C13.4299 12.4911 14.1638 11.8858 14.78 11.17C15.83 10 16.45 8.67 16.9 7.52H17.09C18.23 7.52 18.94 7.06 19.33 6.67C19.59 6.43 19.78 6.14 19.92 5.8L20 5.56L19.81 5.42ZM1.85 6.41H3.61C3.69 6.41 3.77 6.34 3.77 6.25V4.67C3.77 4.59 3.7 4.51 3.61 4.51H1.85C1.76 4.51 1.69 4.58 1.69 4.67V6.25C1.7 6.34 1.76 6.41 1.85 6.41ZM4.28 6.41H6.04C6.12 6.41 6.2 6.34 6.2 6.25V4.67C6.2 4.59 6.13 4.51 6.04 4.51H4.28C4.19 4.51 4.12 4.58 4.12 4.67V6.25C4.13 6.34 4.19 6.41 4.28 6.41ZM6.75 6.41H8.5C8.6 6.41 8.67 6.34 8.67 6.25V4.67C8.67 4.59 8.61 4.51 8.5 4.51H6.75C6.67 4.51 6.6 4.58 6.6 4.67V6.25C6.6 6.34 6.66 6.41 6.75 6.41ZM9.19 6.41H10.96C11.04 6.41 11.11 6.34 11.11 6.25V4.67C11.11 4.59 11.05 4.51 10.96 4.51H9.19C9.11 4.51 9.04 4.58 9.04 4.67V6.25C9.04 6.34 9.11 6.41 9.19 6.41ZM4.28 4.17H6.04C6.12 4.17 6.2 4.08 6.2 3.99V2.42C6.2 2.33 6.13 2.26 6.04 2.26H4.28C4.19 2.26 4.12 2.32 4.12 2.42V3.99C4.13 4.08 4.19 4.17 4.28 4.17ZM6.75 4.17H8.5C8.6 4.17 8.67 4.08 8.67 3.99V2.42C8.67 2.33 8.61 2.26 8.5 2.26H6.75C6.67 2.26 6.6 2.32 6.6 2.42V3.99C6.6 4.08 6.66 4.17 6.75 4.17ZM9.19 4.17H10.96C11.04 4.17 11.11 4.08 11.11 3.99V2.42C11.11 2.33 11.04 2.26 10.96 2.26H9.19C9.11 2.26 9.04 2.32 9.04 2.42V3.99C9.04 4.08 9.11 4.17 9.19 4.17ZM9.19 1.89H10.96C11.04 1.89 11.11 1.82 11.11 1.73V0.17C11.11 0.0700001 11.04 0 10.96 0H9.19C9.11 0 9.04 0.0600001 9.04 0.17V1.73C9.04 1.81 9.11 1.89 9.19 1.89ZM11.65 6.41H13.41C13.5 6.41 13.57 6.34 13.57 6.25V4.67C13.57 4.59 13.5 4.51 13.41 4.51H11.65C11.57 4.51 11.5 4.58 11.5 4.67V6.25C11.5 6.34 11.57 6.41 11.65 6.41Z" fill="#0288D1"/>
</svg>
