<svg width="16" height="15" viewBox="0 0 16 15" fill="none" xmlns="http://www.w3.org/2000/svg">
<path fill-rule="evenodd" clip-rule="evenodd" d="M7.5485 0C3.38013 0 0 3.37937 0 7.5485C0 10.8837 2.16288 13.7131 5.16213 14.7114C5.53925 14.7814 5.67775 14.5476 5.67775 14.3483C5.67775 14.1683 5.67075 13.5736 5.6675 12.9429C3.5675 13.3995 3.12438 12.0523 3.12438 12.0523C2.781 11.1798 2.28625 10.9478 2.28625 10.9478C1.60125 10.4793 2.33788 10.489 2.33788 10.489C3.09575 10.5421 3.495 11.2669 3.495 11.2669C4.16825 12.4206 5.26088 12.0871 5.69163 11.8944C5.75938 11.4065 5.955 11.0734 6.17088 10.8849C4.49425 10.6943 2.73163 10.0469 2.73163 7.1545C2.73163 6.33038 3.02663 5.657 3.5095 5.12825C3.431 4.93825 3.17262 4.1705 3.5825 3.13075C3.5825 3.13075 4.21625 2.92787 5.65875 3.9045C6.261 3.73713 6.90688 3.653 7.5485 3.65013C8.18975 3.653 8.836 3.73688 9.43937 3.90425C10.8801 2.92763 11.5131 3.1305 11.5131 3.1305C11.924 4.17012 11.6656 4.938 11.5872 5.128C12.0712 5.65675 12.3641 6.33013 12.3641 7.15425C12.3641 10.0535 10.5982 10.6918 8.91737 10.8788C9.18825 11.113 9.4295 11.5725 9.4295 12.2766C9.4295 13.2866 9.42075 14.0995 9.42075 14.3481C9.42075 14.549 9.55675 14.7844 9.93925 14.7103C12.9367 13.711 15.0971 10.8825 15.0971 7.5485C15.097 3.37962 11.7172 0 7.5485 0Z" fill="#181616"/>
<path d="M2.85903 10.8379C2.84241 10.8754 2.78341 10.8866 2.72966 10.861C2.67466 10.8365 2.64403 10.7854 2.66178 10.7477C2.67803 10.709 2.73716 10.6984 2.79178 10.7242C2.84678 10.7489 2.87803 10.8005 2.85891 10.838L2.85903 10.8379ZM3.16478 11.179C3.12891 11.2124 3.05853 11.1969 3.01078 11.144C2.96128 11.0915 2.95203 11.0211 2.98866 10.9872C3.02591 10.954 3.09416 10.9697 3.14366 11.0222C3.19291 11.0755 3.20266 11.1452 3.16491 11.1791L3.16478 11.179ZM3.46253 11.6136C3.41628 11.6459 3.34053 11.6157 3.29378 11.5486C3.24753 11.4814 3.24753 11.4007 3.29503 11.3686C3.34166 11.3364 3.41628 11.3655 3.46378 11.432C3.50978 11.5001 3.50978 11.5809 3.46253 11.6136ZM3.87016 12.0337C3.82891 12.0794 3.74066 12.0671 3.67616 12.005C3.61028 11.9441 3.59191 11.8575 3.63328 11.812C3.67528 11.7662 3.76391 11.779 3.82878 11.8407C3.89466 11.9015 3.91453 11.9882 3.87041 12.0336L3.87016 12.0337ZM4.43266 12.2776C4.41428 12.3367 4.32953 12.3636 4.24391 12.3384C4.15853 12.3125 4.10266 12.2434 4.12016 12.1836C4.13766 12.124 4.22303 12.0961 4.30916 12.123C4.39453 12.1487 4.45041 12.2175 4.43266 12.2776ZM5.05053 12.3227C5.05266 12.385 4.98016 12.4365 4.89053 12.4377C4.80016 12.4399 4.72703 12.3894 4.72616 12.3281C4.72616 12.2652 4.79716 12.2144 4.88741 12.2126C4.97703 12.211 5.05066 12.261 5.05066 12.3226L5.05053 12.3227ZM5.62528 12.225C5.63603 12.2856 5.57366 12.348 5.48453 12.3646C5.39703 12.3809 5.31578 12.3431 5.30453 12.283C5.29378 12.2207 5.35728 12.1584 5.44478 12.1422C5.53403 12.1269 5.61403 12.1634 5.62528 12.225Z" fill="#181616"/>
</svg>
