<svg width="30" height="31" viewBox="0 0 30 31" fill="none" xmlns="http://www.w3.org/2000/svg">
<path d="M10.7086 26.7638C3.75076 29.0291 3.75076 22.7186 1 21.9095M20.4171 30V24.3367C20.4171 22.7186 20.5789 22.0713 19.6081 21.1005C24.1388 20.6151 28.5076 18.8351 28.5076 11.3919C28.5056 9.45823 27.7512 7.60122 26.4041 6.21401C27.0359 4.53437 26.9777 2.67302 26.2423 1.03611C26.2423 1.03611 24.4624 0.550678 20.5789 3.13963C17.2897 2.28299 13.836 2.28299 10.5468 3.13963C6.66333 0.550678 4.88343 1.03611 4.88343 1.03611C4.14797 2.67302 4.08981 4.53437 4.72162 6.21401C3.37448 7.60122 2.62006 9.45823 2.61809 11.3919C2.61809 18.8351 6.98695 20.6151 11.5176 21.1005C10.5468 22.0713 10.5468 23.0422 10.7086 24.3367V30" stroke="white" stroke-width="2" stroke-linecap="round" stroke-linejoin="round"/>
</svg>
