<svg width="16" height="16" viewBox="0 0 16 16" fill="none" xmlns="http://www.w3.org/2000/svg">
<g clip-path="url(#clip0_38_24)">
<path d="M12.25 0H3.75C1.67893 0 0 1.67893 0 3.75V12.25C0 14.3211 1.67893 16 3.75 16H12.25C14.3211 16 16 14.3211 16 12.25V3.75C16 1.67893 14.3211 0 12.25 0Z" fill="#F4F2ED"/>
<path d="M2.60225 12.6899H4.59088V7.86036L1.75 5.72974V11.8377C1.75 12.3092 2.13213 12.6899 2.60225 12.6899Z" fill="#4285F4"/>
<path d="M11.4091 12.6899H13.3977C13.8693 12.6899 14.25 12.3078 14.25 11.8377V5.72968L11.4091 7.86036" fill="#34A853"/>
<path d="M11.4091 4.16717V7.86036L14.25 5.72974V4.59324C14.25 3.5393 13.0469 2.93842 12.2046 3.57055" fill="#FBBC04"/>
<path d="M4.59094 7.86036V4.16724L8 6.72393L11.4091 4.16711V7.8603L8 10.4172" fill="#EA4335"/>
<path d="M1.75 4.5933V5.72967L4.59088 7.86036V4.16724L3.79544 3.57061C2.95169 2.93849 1.75 3.53936 1.75 4.5933Z" fill="#C5221F"/>
</g>
<defs>
<clipPath id="clip0_38_24">
<rect width="16" height="16" fill="white"/>
</clipPath>
</defs>
</svg>
