<svg width="19" height="24" viewBox="0 0 19 24" fill="none" xmlns="http://www.w3.org/2000/svg">
<path d="M5.96151 19.411C5.96151 19.411 5.00296 19.9688 6.64459 20.157C8.63368 20.3842 9.65015 20.3517 11.8415 19.9374C11.8415 19.9374 12.4188 20.2984 13.2236 20.6113C8.30934 22.7166 2.10216 20.4892 5.96151 19.411ZM5.36068 16.6632C5.36068 16.6632 4.2853 17.4593 5.92834 17.6294C8.05316 17.8488 9.73078 17.8667 12.6352 17.3077C12.6352 17.3077 13.036 17.7149 13.6672 17.9373C7.72681 19.6746 1.11043 18.074 5.36068 16.6632Z" fill="#0074BD"/>
<path d="M10.4224 12.0013C11.6339 13.3958 10.1047 14.6496 10.1047 14.6496C10.1047 14.6496 13.179 13.0629 11.7674 11.075C10.4485 9.222 9.43746 8.30165 14.9113 5.12698C14.9113 5.12718 6.31889 7.27252 10.4224 12.0013Z" fill="#EA2D2E"/>
<path d="M16.9217 21.4437C16.9217 21.4437 17.6313 22.0289 16.1399 22.4811C13.3043 23.3401 4.33525 23.5991 1.84425 22.5155C0.949241 22.1258 2.62827 21.5855 3.15651 21.4715C3.70727 21.3522 4.02176 21.374 4.02176 21.374C3.02581 20.6728 -2.41545 22.7514 1.2583 23.3476C11.2764 24.9715 19.5199 22.6162 16.9217 21.4437ZM6.42307 13.8157C6.42307 13.8157 1.86135 14.8993 4.80779 15.2933C6.05208 15.4598 8.53141 15.4215 10.8424 15.2277C12.7306 15.0691 14.6254 14.7302 14.6254 14.7302C14.6254 14.7302 13.9602 15.0156 13.4784 15.3441C8.8451 16.5629 -0.10342 15.9952 2.47303 14.7493C4.65115 13.6959 6.42307 13.8157 6.42307 13.8157ZM14.6065 18.3897C19.316 15.9432 17.1383 13.5919 15.6183 13.9086C15.2467 13.986 15.08 14.0534 15.08 14.0534C15.08 14.0534 15.2184 13.8364 15.4822 13.7431C18.489 12.6864 20.801 16.8605 14.5124 18.5138C14.5124 18.5134 14.5846 18.448 14.6065 18.3897Z" fill="#0074BD"/>
<path d="M11.7676 0C11.7676 0 14.3752 2.60923 9.29371 6.6202C5.2186 9.8387 8.36452 11.6734 9.29231 13.7704C6.91331 11.6243 5.16833 9.73475 6.33882 7.97629C8.05767 5.39561 12.8195 4.14388 11.7676 0Z" fill="#EA2D2E"/>
</svg>
