<svg width="16" height="17" viewBox="0 0 16 17" fill="none" xmlns="http://www.w3.org/2000/svg">
<path d="M15.991 3.84582C15.9969 3.86846 16 3.89182 16 3.9153V7.56429C16 7.65963 15.9506 7.74768 15.8704 7.79509L12.9031 9.5585V13.0535C12.9031 13.1002 12.8912 13.1461 12.8686 13.1867C12.846 13.2272 12.8134 13.2608 12.7743 13.2843L6.58 16.9646C6.56581 16.9729 6.55037 16.9781 6.53487 16.9839C6.52906 16.9858 6.52362 16.9895 6.5175 16.9912C6.4742 17.0029 6.42868 17.0029 6.38538 16.9912C6.37825 16.9892 6.37181 16.9852 6.36506 16.9825C6.35088 16.9772 6.33606 16.9725 6.32256 16.9646L0.129562 13.2843C0.0902174 13.2609 0.0575243 13.2273 0.0347781 13.1868C0.0120318 13.1463 3.6173e-05 13.1003 0 13.0535L0 2.10647C0 2.08248 0.00325 2.05919 0.009 2.03661C0.0109375 2.02894 0.0154375 2.02197 0.0180625 2.0143C0.022875 2.00036 0.0274375 1.98604 0.0345 1.97308C0.0393125 1.96443 0.046375 1.95747 0.0521875 1.94947C0.059625 1.93882 0.066375 1.92786 0.0750625 1.9185C0.0825 1.91089 0.0921875 1.90521 0.100562 1.89857C0.109937 1.89057 0.11825 1.88193 0.128875 1.87561H0.129187L3.22581 0.0355001C3.26504 0.0122403 3.30948 0 3.35472 0C3.39996 0 3.4444 0.0122403 3.48362 0.0355001L6.58025 1.87561H6.58087C6.59119 1.88232 6.59994 1.89057 6.60925 1.89825C6.61763 1.90489 6.627 1.91089 6.63438 1.91825C6.64344 1.92786 6.64988 1.93889 6.65756 1.94947C6.66306 1.95747 6.6705 1.96443 6.675 1.97308C6.68238 1.98636 6.68656 2.00036 6.69175 2.01436C6.69431 2.02197 6.69881 2.02894 6.70075 2.03694C6.70669 2.05958 6.70975 2.08299 6.70981 2.10647V8.94375L9.29019 7.41025V3.91497C9.29019 3.89175 9.29344 3.86808 9.29925 3.84582C9.3015 3.83782 9.30569 3.83086 9.30825 3.82325C9.31344 3.80925 9.31794 3.79486 9.325 3.78196C9.32981 3.77332 9.33688 3.76635 9.34244 3.75835C9.35013 3.74771 9.35656 3.73674 9.36556 3.72739C9.37306 3.71978 9.38237 3.7141 9.39075 3.70746C9.40044 3.69946 9.40881 3.69081 9.41912 3.68449H9.41944L12.5164 1.84439C12.5556 1.82106 12.6 1.80879 12.6453 1.80879C12.6905 1.80879 12.735 1.82106 12.7742 1.84439L15.8708 3.68449C15.8817 3.69114 15.8901 3.69946 15.8998 3.70707C15.9078 3.71378 15.9172 3.71978 15.9246 3.72707C15.9336 3.73674 15.9401 3.74771 15.9478 3.75835C15.9536 3.76635 15.9607 3.77332 15.9653 3.78196C15.9726 3.79486 15.9768 3.80925 15.9819 3.82325C15.9849 3.83086 15.9891 3.83782 15.991 3.84582ZM15.4838 7.41031V4.37593L14.4001 5.01977L12.9031 5.90944V8.94382L15.4841 7.41031H15.4838ZM12.3872 12.8995V9.86297L10.9146 10.731L6.7095 13.2081V16.273L12.3872 12.8995ZM0.516187 2.56705V12.8995L6.19325 16.2728V13.2084L3.2275 11.476L3.22656 11.4754L3.22531 11.4747C3.21531 11.4687 3.20687 11.4601 3.19756 11.4528C3.18944 11.4461 3.18013 11.4408 3.17306 11.4334L3.17244 11.4325C3.16406 11.4242 3.15825 11.4138 3.15119 11.4045C3.14469 11.3955 3.137 11.3879 3.13181 11.3786L3.1315 11.3776C3.12569 11.3676 3.12213 11.3556 3.11794 11.3444C3.11375 11.3344 3.10831 11.325 3.10569 11.3144V11.3141C3.1025 11.3015 3.10188 11.2881 3.10056 11.2751C3.09931 11.2652 3.09669 11.2552 3.09669 11.2452V4.10062L1.59987 3.21056L0.516187 2.56744V2.56705ZM3.35506 0.573612L0.774938 2.10647L3.35444 3.63927L5.93419 2.10609L3.35444 0.573612H3.35506ZM4.69681 10.1398L6.19356 9.25048V2.56705L5.11 3.21095L3.61281 4.10056V10.7839L4.69681 10.1398ZM12.6453 2.3825L10.0655 3.9153L12.6453 5.44816L15.2247 3.91497L12.6453 2.3825ZM12.3871 5.90944L10.8901 5.01977L9.80644 4.37593V7.41031L11.3032 8.29966L12.3872 8.94382L12.3871 5.90944ZM6.45106 12.7475L10.235 10.5179L12.1265 9.40375L9.54862 7.87192L6.58056 9.63552L3.87544 11.2429L6.45106 12.7475Z" fill="#FF2D20"/>
</svg>
