<svg width="28" height="28" viewBox="0 0 28 28" fill="none" xmlns="http://www.w3.org/2000/svg">
<path d="M7.47238 12.3267V20.4171M7.47238 7.47238V7.48856M13.9448 20.4171V12.3267M20.4171 20.4171V15.5629C20.4171 14.7046 20.0762 13.8814 19.4693 13.2745C18.8624 12.6676 18.0392 12.3267 17.1809 12.3267C16.3227 12.3267 15.4995 12.6676 14.8926 13.2745C14.2857 13.8814 13.9448 14.7046 13.9448 15.5629M1 4.23619C1 3.3779 1.34095 2.55476 1.94786 1.94786C2.55476 1.34095 3.3779 1 4.23619 1H23.6533C24.5116 1 25.3348 1.34095 25.9417 1.94786C26.5486 2.55476 26.8895 3.3779 26.8895 4.23619V23.6533C26.8895 24.5116 26.5486 25.3348 25.9417 25.9417C25.3348 26.5486 24.5116 26.8895 23.6533 26.8895H4.23619C3.3779 26.8895 2.55476 26.5486 1.94786 25.9417C1.34095 25.3348 1 24.5116 1 23.6533V4.23619Z" stroke="white" stroke-width="2" stroke-linecap="round" stroke-linejoin="round"/>
</svg>
