<svg width="50" height="51" viewBox="0 0 50 51" fill="none" xmlns="http://www.w3.org/2000/svg">
<path d="M28.3857 4.66957C29.5541 3.48237 30.946 2.53825 32.4811 1.89163C34.0162 1.24501 35.6641 0.908694 37.3299 0.902077C38.9956 0.895461 40.6461 1.21867 42.1863 1.85308C43.7265 2.48748 45.1258 3.42052 46.3037 4.59839C47.4815 5.77627 48.4145 7.17567 49.0489 8.7159C49.6833 10.2561 50.0065 11.9067 49.9999 13.5725C49.9933 15.2382 49.657 16.8862 49.0104 18.4213C48.3638 19.9565 47.4197 21.3484 46.2325 22.5169L38.2177 30.5319L34.4748 26.7942L42.4896 18.7765C43.8646 17.4022 44.6374 15.5379 44.6379 13.5938C44.6384 11.6497 43.8666 9.78496 42.4923 8.40991C41.118 7.03486 39.2537 6.26209 37.3096 6.26159C35.3656 6.2611 33.5009 7.03292 32.1259 8.40727L24.1085 16.4249L20.3682 12.6846L28.3857 4.66957ZM33.9934 20.6467L19.6699 34.9679L15.9296 31.2276L30.2505 16.9064L33.9934 20.6467ZM15.4509 25.0801L7.43606 33.0978C6.06105 34.4728 5.28857 36.3378 5.28857 38.2824C5.28857 40.227 6.06105 42.092 7.43606 43.467C8.81108 44.8421 10.676 45.6146 12.6206 45.6146C14.5651 45.6146 16.43 44.8421 17.8051 43.467L25.8199 35.4494L29.5601 39.1897L21.5453 47.2047C19.1787 49.5718 15.9687 50.9017 12.6215 50.902C9.27432 50.9022 6.06413 49.5728 3.69714 47.2061C1.33015 44.8394 0.000248066 41.6293 3.47002e-08 38.282C-0.000247996 34.9348 1.32918 31.7245 3.69582 29.3574L11.7106 21.3424L15.4509 25.0801Z" fill="white"/>
</svg>
