<svg width="18" height="18" viewBox="0 0 18 18" fill="none" xmlns="http://www.w3.org/2000/svg">
<path d="M16.5766 13.9307C15.5944 13.9033 14.8445 13.9969 14.203 14.2722C14.0208 14.3508 13.7304 14.3525 13.7007 14.5852C13.8008 14.6923 13.8162 14.8521 13.896 14.9839C14.049 15.2357 14.3076 15.5743 14.5382 15.7522C14.7902 15.9457 15.0499 16.1532 15.32 16.3209C15.8009 16.6198 16.3374 16.7903 16.7995 17.0892C17.0725 17.2658 17.3431 17.4879 17.6094 17.687C17.741 17.7852 17.8296 17.9383 18 18V17.972C17.9103 17.8554 17.8872 17.6949 17.8046 17.5733L17.4415 17.2032C17.0866 16.7231 16.636 16.3015 16.1574 15.9515C15.7755 15.6717 14.9206 15.2943 14.7616 14.8417L14.7335 14.8132C15.0043 14.7817 15.3212 14.682 15.5715 14.6135C15.9912 14.4991 16.3666 14.5288 16.7995 14.4144L17.386 14.2439V14.1301C17.167 13.9013 17.0108 13.5979 16.7721 13.3905C16.1465 12.8476 15.4643 12.3058 14.7617 11.8539C14.3721 11.6032 13.8907 11.44 13.4776 11.2275C13.3384 11.1563 13.0946 11.1187 13.0028 10.9998C12.786 10.7183 12.6677 10.3611 12.5005 10.0325C12.1501 9.3444 11.8061 8.59356 11.4952 7.86957C11.2834 7.37614 11.1454 6.88931 10.8813 6.44685C9.61363 4.32253 8.24921 3.04008 6.13532 1.77988C5.68531 1.51184 5.14388 1.40589 4.5716 1.26735L3.65002 1.21065C3.46241 1.13097 3.26761 0.897103 3.09155 0.783257C2.39138 0.332036 0.594974 -0.648792 0.0760812 0.640985C-0.251255 1.4547 0.565818 2.24876 0.857942 2.6615C1.06316 2.95035 1.32557 3.27495 1.47191 3.60027C1.56881 3.81446 1.58529 4.02866 1.66783 4.25477C1.87037 4.81223 2.04742 5.41893 2.30997 5.93375C2.44251 6.19446 2.58885 6.46881 2.75675 6.7021C2.85914 6.84509 3.03563 6.90855 3.0638 7.12892C2.89098 7.37513 2.88112 7.75701 2.78435 8.06826C2.348 9.47088 2.51307 11.2137 3.14747 12.2513C3.34226 12.5704 3.80115 13.2534 4.4316 12.9915C4.98345 12.7621 4.86021 12.0527 5.0181 11.4264C5.05388 11.2845 5.0319 11.1801 5.10176 11.0848V11.1134L5.6046 12.1374C5.97659 12.7482 6.63619 13.3863 7.19579 13.817C7.4858 14.0402 7.71412 14.426 8.08934 14.5566V14.5281H8.06131C7.98863 14.4125 7.87483 14.3648 7.78243 14.2724C7.56397 14.0537 7.32086 13.7822 7.14029 13.5322C6.6314 12.8284 6.18181 12.0578 5.77249 11.2559C5.57657 10.8729 5.40657 10.4507 5.24149 10.0609C5.17768 9.91061 5.17881 9.68292 5.04613 9.60554C4.8657 9.89094 4.59935 10.1221 4.45963 10.459C4.2368 10.998 4.20765 11.6558 4.12511 12.3371C4.07609 12.3551 4.09764 12.3427 4.06905 12.3657C3.68002 12.2698 3.54368 11.8621 3.39888 11.5116C3.03352 10.6267 2.96535 9.20169 3.28719 8.18225C3.37029 7.91866 3.74664 7.08872 3.59424 6.84481C3.52156 6.60204 3.2817 6.4612 3.14747 6.27558C2.98126 6.04616 2.81576 5.74396 2.70069 5.47865C2.40138 4.78883 2.26222 4.01387 1.94686 3.3163C1.79615 2.98265 1.54191 2.64499 1.33289 2.34896C1.10119 2.02035 0.842167 1.77801 0.662723 1.38106C0.598918 1.23979 0.512577 1.01368 0.606665 0.869108C0.636948 0.77091 0.679344 0.729995 0.774418 0.698123C0.936114 0.570782 1.3874 0.740762 1.55571 0.81197C2.00362 1.00147 2.37715 1.18208 2.75675 1.43834C2.9383 1.56109 3.12268 1.79897 3.34268 1.86515H3.5941C3.98693 1.95718 4.42709 1.89315 4.79457 2.00699C5.44375 2.20827 6.02532 2.52124 6.55351 2.86106C8.1623 3.89687 9.47841 5.37055 10.3784 7.12978C10.5231 7.41303 10.5859 7.68279 10.7135 7.98327C10.9704 8.58896 11.2945 9.21203 11.5503 9.80481C11.8061 10.3953 12.0548 10.9921 12.4163 11.4838C12.6061 11.7423 13.339 11.8809 13.6724 12.0244C13.9062 12.1248 14.2892 12.2297 14.5103 12.366C14.9328 12.6257 15.3422 12.9352 15.7389 13.2195C15.9364 13.3619 16.546 13.6743 16.5763 13.9311L16.5766 13.9307ZM4.09652 3.08875C3.89186 3.08487 3.74721 3.11114 3.59424 3.14546V3.17402H3.62171C3.7196 3.37817 3.89186 3.50996 4.01285 3.68597L4.29173 4.28377L4.31976 4.25578C4.49259 4.13131 4.57174 3.93276 4.57062 3.62941C4.50132 3.55476 4.49146 3.4623 4.43089 3.37315C4.35174 3.25485 4.19708 3.18809 4.09637 3.08889L4.09652 3.08875Z" fill="#00618A"/>
</svg>
