<svg width="23" height="24" viewBox="0 0 23 24" fill="none" xmlns="http://www.w3.org/2000/svg">
<path d="M22.4947 13.9291C22.3591 13.5185 22.004 13.2326 21.5448 13.164C21.3282 13.1316 21.0802 13.1454 20.7868 13.2059C20.2752 13.3114 19.8957 13.3516 19.6188 13.3594C20.6642 11.5944 21.5142 9.58174 22.0036 7.68712C22.7949 4.62358 22.372 3.22794 21.8779 2.59667C20.5702 0.92576 18.6623 0.0281308 16.3607 0.000664982C15.1329 -0.0143485 14.055 0.228075 13.4927 0.402408C12.9691 0.310031 12.4062 0.258455 11.8156 0.248917C10.7084 0.231254 9.73012 0.472618 8.89423 0.968681C8.43146 0.812188 7.68873 0.591578 6.83102 0.450804C4.81374 0.119625 3.18787 0.37768 1.99862 1.21782C0.558567 2.23502 -0.109002 4.00238 0.0144614 6.47077C0.0536731 7.25447 0.492067 9.63896 1.18233 11.9003C1.57904 13.2002 2.00207 14.2795 2.43967 15.1088C3.06025 16.2847 3.72429 16.9772 4.46975 17.2259C4.88757 17.3651 5.64672 17.4626 6.44518 16.7976C6.54638 16.9201 6.68142 17.0419 6.86061 17.1551C7.08819 17.2986 7.36647 17.4159 7.6444 17.4854C8.64597 17.7357 9.58414 17.6731 10.3845 17.3222C10.3895 17.4645 10.3933 17.6005 10.3965 17.718C10.4018 17.9085 10.4071 18.0953 10.414 18.2699C10.4615 19.4511 10.5418 20.3695 10.7799 21.012C10.793 21.0474 10.8106 21.1012 10.8291 21.1584C10.9479 21.522 11.1465 22.1309 11.6518 22.6077C12.1751 23.1016 12.8081 23.2531 13.3878 23.2531C13.6785 23.2531 13.9559 23.2149 14.1992 23.1628C15.0664 22.9769 16.0514 22.6938 16.7639 21.6792C17.4376 20.7201 17.7651 19.2756 17.8243 16.9995C17.832 16.935 17.8392 16.8736 17.8459 16.8151L17.86 16.6948L18.0187 16.7087L18.0596 16.7115C18.9429 16.7517 20.023 16.5644 20.6863 16.2563C21.2105 16.0131 22.8901 15.1263 22.4947 13.9291Z" fill="black"/>
<path d="M20.9843 14.1619C18.3578 14.7037 18.1772 13.8145 18.1772 13.8145C20.9503 9.69965 22.1096 4.47646 21.1092 3.19811C18.3799 -0.288993 13.6556 1.36019 13.5767 1.40294L13.5513 1.40753C13.0324 1.29979 12.4517 1.23567 11.799 1.22498C10.6106 1.20555 9.70913 1.53656 9.02505 2.05532C9.02505 2.05532 0.597188 -1.41668 0.989217 6.42194C1.07259 8.0895 3.37936 19.0397 6.13071 15.7322C7.13635 14.5228 8.10808 13.5002 8.10808 13.5002C8.59063 13.8208 9.16838 13.9843 9.77404 13.9256L9.82112 13.8857C9.80646 14.0358 9.81317 14.1827 9.83993 14.3566C9.13111 15.1485 9.33945 15.2875 7.92253 15.5792C6.48874 15.8747 7.331 16.4007 7.88093 16.5383C8.54762 16.7049 10.0899 16.9411 11.1321 15.4822L11.0905 15.6487C11.3682 15.8712 11.5632 17.0956 11.5305 18.2056C11.4979 19.3155 11.476 20.0776 11.6948 20.6728C11.9137 21.2681 12.1318 22.6074 13.9945 22.2083C15.5509 21.8747 16.3575 21.0104 16.4697 19.5685C16.5493 18.5436 16.7295 18.6951 16.7408 17.7787L16.8854 17.3449C17.052 15.9554 16.9119 15.5071 17.8707 15.7156L18.1039 15.7361C18.8095 15.7682 19.7333 15.6226 20.2754 15.3706C21.4428 14.8289 22.1352 13.9243 20.9841 14.1619H20.9843Z" fill="#336791"/>
<path d="M9.51851 7.16764C9.28182 7.1347 9.06748 7.16516 8.95903 7.2473C8.8981 7.29349 8.8792 7.347 8.87407 7.38383C8.86047 7.48142 8.92883 7.58934 8.97087 7.64498C9.08974 7.80253 9.26337 7.9108 9.43523 7.93465C9.46013 7.93812 9.48492 7.93983 9.50959 7.93977C9.79617 7.93977 10.0568 7.7166 10.0797 7.55189C10.1084 7.34559 9.80897 7.208 9.51851 7.16764ZM17.3594 7.17417C17.3368 7.01247 17.0491 6.96637 16.776 7.00434C16.5033 7.04232 16.2389 7.16543 16.261 7.32749C16.2786 7.45351 16.5062 7.66865 16.7756 7.66865C16.7984 7.66865 16.8213 7.66706 16.8445 7.66388C17.0243 7.63897 17.1562 7.52478 17.2189 7.45899C17.3143 7.35866 17.3696 7.24686 17.3594 7.17417Z" fill="white"/>
<path d="M21.8583 14.1004C21.7581 13.7976 21.4358 13.7001 20.9002 13.8107C19.3101 14.1389 18.7407 13.9116 18.5537 13.7739C19.7897 11.891 20.8064 9.61498 21.355 7.49145C21.6148 6.48555 21.7583 5.55136 21.77 4.78991C21.783 3.95419 21.6407 3.34005 21.3471 2.96489C20.1635 1.4525 18.4264 0.641244 16.3236 0.618988C14.878 0.602738 13.6566 0.972688 13.4198 1.07672C12.9212 0.952729 12.3776 0.876602 11.7858 0.866887C10.7006 0.849313 9.76252 1.10913 8.98588 1.63876C8.64852 1.51317 7.77668 1.21388 6.71046 1.0421C4.86716 0.745366 3.40237 0.970215 2.35708 1.71073C1.10981 2.59441 0.534001 4.174 0.645542 6.40554C0.683076 7.1563 1.11087 9.4659 1.78595 11.6777C2.67457 14.5889 3.64055 16.237 4.65688 16.576C4.77584 16.6157 4.91299 16.6434 5.06427 16.6434C5.43502 16.6434 5.88957 16.4763 6.3625 15.9077C6.93934 15.2158 7.53603 14.5406 8.15184 13.883C8.55137 14.0975 8.9903 14.2172 9.4392 14.2292C9.44014 14.241 9.44117 14.2527 9.44229 14.2644C9.36502 14.3565 9.28936 14.45 9.21532 14.5448C8.90428 14.9396 8.83955 15.0219 7.83832 15.228C7.55351 15.2868 6.79709 15.4427 6.78597 15.9729C6.77396 16.5523 7.68015 16.7956 7.78339 16.8214C8.14318 16.9114 8.48982 16.9559 8.82038 16.9559C9.62431 16.9559 10.3318 16.6916 10.8972 16.1804C10.8798 18.2457 10.9659 20.2808 11.2139 20.9009C11.417 21.4085 11.9132 22.6491 13.4804 22.649C13.7104 22.649 13.9635 22.6222 14.2419 22.5625C15.8776 22.2119 16.5879 21.489 16.8627 19.8951C17.0097 19.0434 17.262 17.0094 17.3807 15.9183C17.6312 15.9965 17.9536 16.0323 18.3022 16.0322C19.0292 16.0322 19.8681 15.8777 20.3942 15.6335C20.9852 15.359 22.0517 14.6856 21.8583 14.1004ZM17.9631 6.72788C17.9577 7.04997 17.9133 7.34238 17.8664 7.64759C17.8158 7.97586 17.7635 8.31525 17.7503 8.72724C17.7373 9.12819 17.7874 9.54503 17.8358 9.94819C17.9337 10.7624 18.0341 11.6007 17.6454 12.4279C17.5809 12.3134 17.5234 12.1952 17.4732 12.0738C17.4249 11.9567 17.32 11.7686 17.1747 11.5083C16.6095 10.4948 15.2862 8.1214 15.9636 7.15294C16.1654 6.86468 16.6776 6.5683 17.9631 6.72788ZM16.4048 1.27119C18.2889 1.31279 19.7793 2.01763 20.8345 3.36601C21.6438 4.40027 20.7527 9.10628 18.1727 13.1662C18.1468 13.1332 18.1207 13.1003 18.0945 13.0675L18.0618 13.0267C18.7285 11.9257 18.5981 10.8364 18.4821 9.87056C18.4344 9.4742 18.3894 9.09984 18.4008 8.74817C18.4127 8.37548 18.4619 8.05578 18.5096 7.74668C18.5682 7.36578 18.6278 6.97163 18.6114 6.50701C18.6237 6.45826 18.6286 6.40068 18.6222 6.33232C18.5802 5.88678 18.0715 4.55331 17.0347 3.34641C16.4675 2.68626 15.6405 1.9475 14.5112 1.44923C14.9969 1.34856 15.6611 1.25468 16.4048 1.27119ZM5.86202 15.4916C5.34096 16.1181 4.98117 15.998 4.86283 15.9586C4.09184 15.7014 3.19722 14.0719 2.40848 11.4878C1.72598 9.25183 1.32715 7.00343 1.29554 6.37295C1.19592 4.37898 1.67926 2.98935 2.73224 2.24256C4.44589 1.02735 7.26331 1.75471 8.39541 2.1236C8.37916 2.13968 8.36221 2.15469 8.34613 2.17103C6.48835 4.04718 6.53242 7.25265 6.53701 7.44862C6.53683 7.52422 6.54319 7.63125 6.55184 7.77847C6.58381 8.31763 6.64334 9.32107 6.48437 10.4574C6.33671 11.5134 6.66224 12.5469 7.37732 13.2931C7.45068 13.3696 7.52782 13.4423 7.60844 13.5111C7.29015 13.852 6.59839 14.6058 5.86202 15.4916ZM7.84724 12.8428C7.2709 12.2414 7.00914 11.4048 7.12898 10.5475C7.29678 9.34712 7.23487 8.30165 7.20157 7.73997C7.19689 7.66137 7.19274 7.59248 7.19036 7.53817C7.46175 7.29751 8.71944 6.62367 9.61636 6.82918C10.0256 6.92288 10.275 7.2016 10.3787 7.68097C10.9153 10.1629 10.4497 11.1973 10.0756 12.0286C9.9985 12.1999 9.92564 12.3617 9.86346 12.5292L9.81524 12.6586C9.69319 12.9859 9.57962 13.2903 9.50923 13.5792C8.89651 13.5775 8.30047 13.3157 7.84724 12.8427M7.9413 16.1898C7.76237 16.1451 7.60146 16.0675 7.50706 16.0031C7.58592 15.966 7.72625 15.9155 7.96965 15.8654C9.1475 15.6229 9.32943 15.4518 9.72666 14.9474C9.81772 14.8317 9.92096 14.7007 10.0639 14.541L10.0641 14.5408C10.277 14.3024 10.3745 14.3428 10.5511 14.4161C10.6942 14.4753 10.8337 14.6547 10.8902 14.8522C10.917 14.9455 10.947 15.1224 10.8487 15.2602C10.0189 16.4221 8.8097 16.4072 7.9413 16.1898ZM14.1056 21.926C12.6646 22.2348 12.1544 21.4996 11.8182 20.6591C11.6012 20.1165 11.4945 17.6696 11.5702 14.9675C11.5712 14.9315 11.5661 14.8968 11.5562 14.8641C11.5474 14.7996 11.5339 14.7358 11.5159 14.6732C11.4034 14.28 11.1292 13.9511 10.8002 13.8148C10.6695 13.7606 10.4296 13.6613 10.1414 13.735C10.2029 13.4817 10.3095 13.1957 10.4251 12.886L10.4735 12.7557C10.5281 12.6088 10.5967 12.4567 10.6691 12.2956C11.0606 11.4259 11.5967 10.2346 11.0148 7.54338C10.7969 6.53536 10.069 6.04309 8.96557 6.15746C8.30409 6.2259 7.69887 6.49279 7.39701 6.64584C7.3321 6.67869 7.27276 6.71049 7.21729 6.7414C7.30155 5.72578 7.61983 3.82772 8.81049 2.62682C9.56019 1.87085 10.5586 1.49745 11.775 1.51759C14.1719 1.5568 15.7089 2.78685 16.5763 3.81191C17.3238 4.69515 17.7286 5.58492 17.8901 6.06482C16.6753 5.94127 15.8492 6.18104 15.4304 6.77981C14.5192 8.08228 15.9288 10.6102 16.6063 11.8251C16.7305 12.0478 16.8378 12.2402 16.8715 12.322C17.0921 12.8567 17.3777 13.2136 17.5862 13.4741C17.6502 13.554 17.7122 13.6314 17.7593 13.6991C17.3914 13.8051 16.7305 14.0502 16.7908 15.2752C16.7422 15.8899 16.3968 18.7677 16.2213 19.7845C15.9897 21.1278 15.4954 21.628 14.1056 21.926ZM20.1201 15.0432C19.7439 15.2178 19.1143 15.3488 18.5163 15.377C17.8557 15.4079 17.5194 15.303 17.4402 15.2384C17.4031 14.475 17.6873 14.3953 17.988 14.3108C18.0352 14.2976 18.0813 14.2846 18.1258 14.2691C18.1534 14.2916 18.1838 14.3139 18.217 14.3358C18.7479 14.6863 19.6949 14.7241 21.0319 14.4481L21.0466 14.4452C20.8662 14.6138 20.5577 14.84 20.1201 15.0432Z" fill="white"/>
</svg>
