<svg width="16" height="16" viewBox="0 0 16 16" fill="none" xmlns="http://www.w3.org/2000/svg">
<path d="M13.8975 3.01634C11.2789 -0.374656 6.40673 -1.00066 3.01561 1.61847C-0.375019 4.23759 -1.00039 9.10972 1.61873 12.5003C4.23836 15.8908 9.11086 16.5158 12.501 13.8962C15.8902 11.2771 16.5157 6.40647 13.8975 3.01634Z" fill="#F37036"/>
<path d="M11.1425 2.77859C10.8755 2.79995 10.6223 2.90622 10.4199 3.08184C10.1831 3.28748 10.032 3.57439 9.99639 3.88597C9.96076 4.19755 10.0432 4.51118 10.2274 4.76497C10.4115 5.0188 10.684 5.19445 10.9912 5.25728C11.2984 5.3201 11.618 5.26553 11.8869 5.10434H11.8872L11.9067 5.12384C11.9953 5.07309 12.0777 5.01227 12.1523 4.94259C12.3825 4.69909 12.5092 4.37568 12.5055 4.04059C12.5019 3.7055 12.3683 3.38492 12.1328 3.14647V3.14622L11.0273 4.24484L11.0078 4.22547L12.1133 3.12634C11.9853 3.00298 11.8326 2.9082 11.6653 2.8483C11.4979 2.78839 11.3197 2.76471 11.1425 2.77884V2.77859ZM9.68705 4.57697C9.15705 4.57609 8.29167 5.17684 6.17867 7.28984L6.18917 7.30059C6.17767 7.29659 6.16605 7.29622 6.16605 7.29622L5.37055 8.08472C5.35012 8.10415 5.3366 8.12972 5.33204 8.15754C5.32748 8.18536 5.33214 8.21391 5.3453 8.23885C5.35846 8.26378 5.3794 8.28373 5.40495 8.29567C5.43049 8.3076 5.45923 8.31087 5.4868 8.30497L6.85105 8.01397C6.85712 8.00835 6.86117 8.00087 6.86255 7.99272L6.8928 8.02397L6.4278 8.48522H6.4053L3.64455 11.2677L4.5303 12.1207C4.55503 12.1431 4.58629 12.157 4.61949 12.1604C4.65269 12.1637 4.68609 12.1563 4.7148 12.1393C4.74375 12.1225 4.76693 12.0973 4.78132 12.0671C4.79571 12.0368 4.80062 12.0029 4.79542 11.9698L4.66605 11.4073C4.65791 11.3961 4.65353 11.3825 4.65353 11.3686C4.65353 11.3547 4.65791 11.3411 4.66605 11.3298C5.87531 10.7533 6.99985 10.0138 8.0083 9.13197L7.44142 8.56484L7.45217 8.56309L7.11592 8.22697L7.13742 8.20522L7.16017 8.22847L7.14842 8.23984L8.04055 9.15147V9.15109C9.75055 7.53184 10.9643 6.23022 10.6487 5.35422C10.6343 5.24946 10.5856 5.15241 10.5103 5.07822V5.07872C10.4911 5.06454 10.4709 5.05176 10.4499 5.04047C10.4395 5.02947 10.4304 5.01822 10.4194 5.00747L10.4112 5.01572C10.3879 5.00168 10.3636 4.98956 10.3384 4.97947L10.3745 4.94297C10.15 4.74297 9.96455 4.57747 9.68705 4.57672V4.57697ZM3.6253 11.2843L2.97892 11.9308V11.9313C2.95573 11.9457 2.9377 11.9671 2.92744 11.9923C2.91717 12.0176 2.91519 12.0455 2.9218 12.072C2.92818 12.0984 2.94273 12.1222 2.9634 12.1399C2.98407 12.1576 3.0098 12.1684 3.03692 12.1706L4.62092 12.28L3.6253 11.2843Z" fill="white"/>
<path d="M11.2515 2.67181C10.8887 2.6714 10.5404 2.81374 10.2817 3.06806C10.0976 3.25646 9.97161 3.49378 9.91864 3.75176C9.86567 4.00975 9.88798 4.27752 9.98291 4.52319C9.39028 4.26944 8.58853 4.71194 6.09466 7.20531C6.09292 7.20915 6.09137 7.21307 6.09003 7.21706C6.08491 7.21931 6.07994 7.2219 6.07516 7.22481L5.28653 8.02031C5.24873 8.05742 5.2239 8.10572 5.21573 8.15805C5.20756 8.21038 5.21647 8.26395 5.24116 8.31081C5.26317 8.34791 5.29437 8.37871 5.33174 8.40025C5.36911 8.4218 5.4114 8.43335 5.45453 8.43381L5.49366 8.40844L6.54666 8.18381L6.04291 8.69219C6.04006 8.6989 6.0378 8.70584 6.03616 8.71294L3.56741 11.1878C3.55757 11.1961 3.54942 11.2062 3.54341 11.2176L2.90766 11.8538C2.87601 11.8873 2.85439 11.929 2.84524 11.9741C2.83609 12.0192 2.83979 12.066 2.85591 12.1092C2.87254 12.152 2.90067 12.1894 2.93719 12.2173C2.9737 12.2452 3.0172 12.2625 3.06291 12.2673L4.64016 12.3773C4.66711 12.3679 4.69005 12.3496 4.70516 12.3254C4.71865 12.3066 4.7259 12.284 4.7259 12.2608C4.7259 12.2376 4.71865 12.2149 4.70516 12.1961L4.70191 12.1929C4.73603 12.1752 4.76605 12.1505 4.79003 12.1204C4.81534 12.0876 4.83302 12.0495 4.8418 12.0089C4.85057 11.9683 4.85023 11.9263 4.84078 11.8859L4.71778 11.3626C5.89785 10.7986 7.00352 10.0907 8.00953 9.25494C8.01924 9.26061 8.02967 9.26494 8.04053 9.26782C8.07228 9.26544 8.10203 9.25181 8.12453 9.22931C9.81828 7.62556 10.8139 6.52656 10.8139 5.65406C10.8177 5.53303 10.7994 5.41232 10.76 5.29782C10.9127 5.361 11.0755 5.39614 11.2407 5.40156L11.2388 5.40207C11.4663 5.39521 11.6886 5.33299 11.8867 5.22081L11.8872 5.22094C11.9128 5.22856 11.9404 5.2261 11.9643 5.21406C12.0598 5.15779 12.147 5.08826 12.223 5.00756C12.352 4.8811 12.4544 4.7302 12.5243 4.56369C12.5942 4.39719 12.6303 4.21841 12.6303 4.03781C12.6303 3.85723 12.5943 3.67846 12.5244 3.51195C12.4545 3.34544 12.3521 3.19454 12.2232 3.06806C12.2185 3.06391 12.2136 3.06011 12.2084 3.05669C11.9511 2.80968 11.6081 2.6718 11.2514 2.67194L11.2515 2.67181ZM11.2407 2.89332C11.4933 2.89482 11.7385 2.97884 11.9389 3.13256L10.9304 4.14719C10.927 4.15107 10.9238 4.15516 10.9209 4.15944C10.9027 4.17783 10.8921 4.20235 10.891 4.22819C10.891 4.2438 10.8945 4.25922 10.9013 4.27329C10.9081 4.28736 10.9179 4.29971 10.9302 4.30944H10.9304L11.6929 5.07194C11.4842 5.16302 11.2529 5.18893 11.0292 5.14626C10.8055 5.10359 10.5999 4.99433 10.4394 4.83281C10.1162 4.50781 10.0224 4.01982 10.1953 3.59644C10.3682 3.17269 10.7803 2.89582 11.2407 2.89332ZM12.1307 3.32231C12.2956 3.52182 12.3855 3.77273 12.3848 4.03156C12.3843 4.33479 12.2635 4.62542 12.0488 4.83957C12.0057 4.88005 11.9599 4.91744 11.9115 4.95144L11.2962 4.34556L11.1758 4.22519L11.2089 4.19206L12.1305 3.32206L12.1307 3.32231ZM12.0849 3.84644C12.0623 3.83933 12.0378 3.8407 12.0162 3.85031C11.9947 3.86141 11.9785 3.88056 11.9712 3.90357C11.9675 3.91505 11.9662 3.92713 11.9673 3.93913C11.9684 3.95112 11.9718 3.96278 11.9774 3.97344C11.9996 4.02015 12.0083 4.07211 12.0026 4.1235C11.997 4.17489 11.9771 4.22369 11.9453 4.26444C11.9371 4.2723 11.9307 4.28181 11.9265 4.29232C11.9223 4.30284 11.9204 4.31413 11.9209 4.32544C11.9214 4.34844 11.9297 4.37044 11.9453 4.38694C11.9619 4.39331 11.9804 4.39331 11.997 4.38694C12.0121 4.39069 12.0278 4.39026 12.0426 4.3857C12.0574 4.38114 12.0707 4.37262 12.081 4.36107C12.1343 4.29586 12.168 4.21693 12.1782 4.13339C12.1885 4.04985 12.175 3.96511 12.1392 3.88894V3.88944C12.1269 3.86895 12.1076 3.85366 12.0849 3.84644ZM9.67528 4.68682C9.82611 4.69196 9.97124 4.74572 10.089 4.84006C9.9622 4.85835 9.84466 4.9171 9.75391 5.00756L6.90303 7.84569L6.34353 7.28619C7.82203 5.81469 8.72603 5.04607 9.28803 4.79419C9.40383 4.72127 9.53847 4.68403 9.67528 4.68682ZM10.1709 5.05681C10.2666 5.05689 10.3584 5.09481 10.4263 5.16232C10.4623 5.19623 10.4907 5.2374 10.5096 5.2831C10.5286 5.3288 10.5376 5.37799 10.5362 5.42744C10.5345 5.47671 10.5227 5.52512 10.5016 5.56964C10.4804 5.61416 10.4502 5.65384 10.413 5.68619L7.38178 8.32444L7.05466 7.99731L9.91553 5.16232C9.98341 5.09486 10.0752 5.05685 10.1709 5.05681ZM10.5452 5.89407C10.3339 6.73182 9.21428 7.86694 8.04678 8.96994L7.57466 8.49831L10.5452 5.89407ZM6.17866 7.45144L6.21291 7.48519L6.65203 7.92431L5.44828 8.18181L6.17866 7.45144ZM6.90278 8.18144L6.90328 8.18194L7.04928 8.33131L7.05153 8.34181L7.06128 8.34331L7.09228 8.37506L7.19478 8.48006L6.52166 8.56256L6.90278 8.18144ZM7.38616 8.69094L7.83341 9.13794C6.84444 9.9603 5.75919 10.6594 4.60153 11.2199C4.56395 11.2378 4.53373 11.2682 4.51602 11.3059C4.49831 11.3436 4.49421 11.3862 4.50441 11.4266L4.63378 11.9891C4.63855 11.9957 4.64112 12.0036 4.64112 12.0118C4.64112 12.0199 4.63855 12.0278 4.63378 12.0344C4.62667 12.0408 4.61746 12.0443 4.60791 12.0443C4.59836 12.0443 4.58914 12.0408 4.58203 12.0344L3.81928 11.2654L6.17028 8.87994L7.38616 8.69094ZM3.64453 11.4334L3.75316 11.5352L4.31466 12.0967L3.06266 12.0157L3.64453 11.4334Z" fill="#F37036"/>
</svg>
