<svg width="20" height="20" viewBox="0 0 20 20" fill="none" xmlns="http://www.w3.org/2000/svg">
<path d="M15.9125 6.51875V13.4375L10.0281 16.925L9.97498 16.9734V19.5625L10.0281 19.6125L18.3094 14.825V5.175L18.2312 5.15625L15.8875 6.4625L15.9 6.51875" fill="#2F406A"/>
<path d="M4.12495 13.5L10.0281 16.925V19.6125L1.68433 14.8062V5.19374L1.77026 5.18124L4.09995 6.53593L4.12495 6.61406V13.5Z" fill="#2379BD"/>
<path d="M4.12495 6.61251L1.68433 5.19376L10.0093 0.387512L18.3156 5.17501L15.9125 6.51876L10.0093 3.15001L4.12495 6.61251Z" fill="#03AFEF"/>
<path d="M9.92661 12.7078L9.86255 12.6422V10.0422L9.92661 10.0094L9.94224 9.94532L12.1719 8.64532L12.2407 8.66095V11.3406L9.92817 12.7094" fill="#2F406A"/>
<path d="M7.57495 11.4234V8.64062H7.63901L9.9062 9.96094L9.92495 10.0125V12.7078L7.57495 11.4234Z" fill="#2379BD"/>
<path d="M9.88901 7.27188L7.57495 8.64063L9.92651 10.0094L12.239 8.65938L9.88901 7.27188Z" fill="#03AFEF"/>
<path d="M7.04844 14.4047L6.98438 14.3391V11.7391L7.04844 11.7063L7.06406 11.6422L9.29375 10.3422L9.3625 10.3578V13.0359L7.05 14.4047" fill="#2F406A"/>
<path d="M4.6969 13.125V10.3375H4.76096L7.03127 11.6547L7.05002 11.7062V14.4047L4.6969 13.125Z" fill="#2379BD"/>
<path d="M7.0094 8.96875L4.6969 10.3375L7.04846 11.7062L9.36096 10.3562L7.0094 8.96875Z" fill="#03AFEF"/>
<path d="M13.011 14.4688L12.9469 14.4031V11.8031L13.011 11.7703L13.0266 11.7062L15.2563 10.4062L15.325 10.4219V13.1L13.011 14.4688Z" fill="#2F406A"/>
<path d="M10.6594 13.1844V10.4016H10.7235L12.9922 11.7187L13.011 11.7703V14.4687L10.6594 13.1844Z" fill="#2379BD"/>
<path d="M12.9688 9.03281L10.6562 10.4016L13.0078 11.7703L15.3203 10.4203L12.9688 9.03281Z" fill="#03AFEF"/>
<path d="M10.1328 16.1656L10.0687 16.1V13.5L10.1328 13.4672L10.1484 13.4031L12.3781 12.1031L12.4469 12.1187V14.7969L10.1344 16.1656" fill="#2F406A"/>
<path d="M7.78125 14.8797V12.0984H7.84531L10.1125 13.4188L10.1312 13.4703V16.1688L7.78125 14.8797Z" fill="#2379BD"/>
<path d="M10.0937 10.7297L7.78125 12.0984L10.1328 13.4672L12.4453 12.1172L10.0937 10.7297Z" fill="#03AFEF"/>
<path d="M9.92661 9.0203L9.86255 8.95468V6.35468L9.92661 6.32186L9.94224 6.2578L12.1719 4.95624L12.2407 4.97186V7.65624L9.92817 9.02499" fill="#2F406A"/>
<path d="M7.57495 7.73437V4.95312H7.63901L9.9062 6.27344L9.92495 6.325V9.02031L7.57495 7.73437Z" fill="#2379BD"/>
<path d="M9.88901 3.58438L7.57495 4.95313L9.92651 6.32188L12.239 4.97188L9.88901 3.58438Z" fill="#03AFEF"/>
<path d="M7.04844 10.7172L6.98438 10.6516V8.05157L7.04844 8.01876L7.06406 7.95469L9.29375 6.65469L9.3625 6.67032V9.34844L7.05 10.7172" fill="#2F406A"/>
<path d="M4.6969 9.43125V6.64844H4.76096L7.03127 7.96875L7.05002 8.02031V10.7172L4.6969 9.43125Z" fill="#2379BD"/>
<path d="M7.0094 5.28125L4.6969 6.65L7.04846 8.01875L9.36096 6.66875L7.0094 5.28125Z" fill="#03AFEF"/>
<path d="M13.011 10.7812L12.9469 10.7156V8.11562L13.011 8.08281L13.0266 8.01875L15.2563 6.71875L15.325 6.73437V9.4125L13.011 10.7812Z" fill="#2F406A"/>
<path d="M10.6594 9.49531V6.71875H10.7235L12.9907 8.03906L13.0094 8.09062V10.7812L10.6594 9.49531Z" fill="#2379BD"/>
<path d="M12.9688 5.34531L10.6594 6.71874L13.011 8.08749L15.3235 6.73749L12.9688 5.34531Z" fill="#03AFEF"/>
<path d="M10.1328 12.4766L10.0687 12.4109V9.81094L10.1328 9.77813L10.1484 9.71406L12.3781 8.41406L12.4469 8.42969V11.1078L10.1344 12.4766" fill="#2F406A"/>
<path d="M7.78125 11.1922V8.40936H7.84531L10.1125 9.72968L10.1312 9.78124V12.4766L7.78125 11.1922Z" fill="#2379BD"/>
<path d="M10.0937 7.04062L7.78125 8.40937L10.1328 9.77812L12.4453 8.42812L10.0937 7.04062Z" fill="#03AFEF"/>
</svg>
