<svg width="18" height="18" viewBox="0 0 18 18" fill="none" xmlns="http://www.w3.org/2000/svg">
<mask id="mask0_43_9" style="mask-type:luminance" maskUnits="userSpaceOnUse" x="0" y="0" width="18" height="18">
<path d="M13.7812 0H4.21875C1.8888 0 0 1.8888 0 4.21875V13.7812C0 16.1112 1.8888 18 4.21875 18H13.7812C16.1112 18 18 16.1112 18 13.7812V4.21875C18 1.8888 16.1112 0 13.7812 0Z" fill="white"/>
</mask>
<g mask="url(#mask0_43_9)">
<path d="M4.21875 0C1.8888 0 0 1.8888 0 4.21875V13.7812C0 16.1112 1.8888 18 4.21875 18H11.8448C11.7198 17.6314 11.6218 17.0475 11.5667 16.3812C11.5192 15.808 11.5035 15.1739 11.5298 14.5622C11.5227 14.4718 11.5184 14.413 11.5184 14.413C11.5184 14.413 11.3866 13.5264 11.197 12.798C11.113 12.4747 11.0175 12.1823 10.9171 12.0129C10.8655 11.9255 10.9228 11.5663 11.067 11.0344C11.1514 11.18 11.5073 11.8031 11.5789 12.0039C11.6594 12.2309 11.6762 12.2959 11.6762 12.2959C11.6762 12.2959 11.481 11.2924 11.1606 10.7068C11.2387 10.4459 11.3217 10.1865 11.4097 9.92876C11.5206 10.1233 11.7728 10.5701 11.864 10.7818C11.8724 10.8014 11.88 10.8198 11.8856 10.835C11.8985 10.8717 11.9094 10.9029 11.9192 10.9314C11.9706 11.0803 11.9831 11.1277 11.9831 11.1277C11.9831 11.1277 11.964 11.0303 11.9286 10.8799C11.9136 10.8165 11.895 10.7418 11.8742 10.6623C11.7935 10.3523 11.6709 9.94641 11.5139 9.62838C11.9169 7.53349 13.2141 4.79039 14.6116 3.30954C14.7321 3.18199 14.8531 3.06267 14.9743 2.95509C15.7913 2.23087 16.6191 1.98619 17.3027 2.59523C17.7973 3.03588 17.9996 3.64465 18 4.34531V4.21875C18 1.8888 16.1112 0 13.7812 0H4.21875Z" fill="#D9D9D9"/>
<path d="M4.21875 0C1.8888 0 0 1.8888 0 4.21875V13.7812C0 16.1112 1.8888 18 4.21875 18H11.8448C11.7198 17.6314 11.6218 17.0475 11.5667 16.3812C11.5192 15.808 11.5035 15.1739 11.5298 14.5622C11.5227 14.4718 11.5184 14.413 11.5184 14.413C11.5184 14.413 11.3866 13.5264 11.197 12.798C11.113 12.4747 11.0175 12.1823 10.9171 12.0129C10.8655 11.9255 10.9228 11.5663 11.067 11.0344C11.1514 11.18 11.5073 11.8031 11.5789 12.0039C11.6594 12.2309 11.6762 12.2959 11.6762 12.2959C11.6762 12.2959 11.481 11.2924 11.1606 10.7068C11.2387 10.4459 11.3217 10.1865 11.4097 9.92876C11.5206 10.1233 11.7728 10.5701 11.864 10.7818C11.8724 10.8014 11.88 10.8198 11.8856 10.835C11.8985 10.8717 11.9094 10.9029 11.9192 10.9314C11.9706 11.0803 11.9831 11.1277 11.9831 11.1277C11.9831 11.1277 11.964 11.0303 11.9286 10.8799C11.9136 10.8165 11.895 10.7418 11.8742 10.6623C11.7935 10.3523 11.6709 9.94641 11.5139 9.62838C11.9169 7.53349 13.2141 4.79039 14.6116 3.30954C14.7321 3.18199 14.8531 3.06267 14.9743 2.95509C15.7913 2.23087 16.6191 1.98619 17.3027 2.59523C17.7973 3.03588 17.9996 3.64465 18 4.34531V4.21875C18 1.8888 16.1112 0 13.7812 0H4.21875Z" fill="url(#paint0_linear_43_9)"/>
<path d="M17.3027 2.59524C16.6191 1.9862 15.7913 2.23081 14.9743 2.9551C14.8531 3.06268 14.7321 3.182 14.6116 3.30948C13.2141 4.79047 11.9169 7.5335 11.5139 9.62839C11.6709 9.94641 11.7935 10.3523 11.8742 10.6623C11.895 10.7418 11.9136 10.8165 11.9286 10.88C11.964 11.0303 11.9831 11.1277 11.9831 11.1277C11.9831 11.1277 11.9706 11.0803 11.9192 10.9314C11.9094 10.9029 11.8985 10.8717 11.8856 10.835C11.8788 10.8171 11.8716 10.7994 11.864 10.7818C11.7728 10.5701 11.5206 10.1233 11.4097 9.92877C11.3217 10.1865 11.2387 10.4459 11.1606 10.7068C11.481 11.2924 11.6762 12.2959 11.6762 12.2959C11.6762 12.2959 11.6594 12.2309 11.5789 12.0039C11.5073 11.8031 11.1514 11.18 11.067 11.0344C10.9228 11.5663 10.8655 11.9255 10.9171 12.0129C11.0175 12.1824 11.113 12.4747 11.197 12.798C11.3866 13.5264 11.5184 14.413 11.5184 14.413C11.5184 14.413 11.5227 14.4718 11.5298 14.5622C11.5035 15.1739 11.5192 15.808 11.5667 16.3812C11.6295 17.1399 11.7477 17.7918 11.8985 18.1406L12.0008 18.0849C11.7795 17.3976 11.6895 16.4969 11.7289 15.4581C11.7885 13.8704 12.1543 11.9557 12.8301 9.95999C13.972 6.94731 15.5563 4.53017 17.0063 3.37578C15.6847 4.568 13.896 8.42696 13.3606 9.85599C12.7611 11.4562 12.3362 12.958 12.0802 14.3967C12.522 13.0479 13.9504 12.4681 13.9504 12.4681C13.9504 12.4681 14.6509 11.6051 15.4697 10.3721C14.9792 10.4838 14.1739 10.6751 13.9042 10.7883C13.5063 10.955 13.3991 11.0119 13.3991 11.0119C13.3991 11.0119 14.6879 10.2279 15.7937 9.87294C17.3144 7.48055 18.9711 4.08186 17.3027 2.59524ZM2.00531 3.44532C1.78995 3.44532 1.6148 3.50825 1.48057 3.63397C1.34627 3.75983 1.27821 3.92485 1.27821 4.127C1.27821 4.23177 1.29509 4.32725 1.32841 4.41479C1.36174 4.50247 1.41363 4.58375 1.48331 4.65716C1.55306 4.73063 1.69263 4.83048 1.90069 4.95739C2.15592 5.11109 2.32291 5.23583 2.40307 5.33328C2.4833 5.43066 2.52309 5.53269 2.52309 5.639C2.52309 5.78145 2.47563 5.89508 2.37797 5.98058C2.28016 6.06601 2.14938 6.10855 1.98717 6.10855C1.8161 6.10855 1.66711 6.04913 1.53914 5.93094C1.41117 5.81267 1.34663 5.65616 1.34515 5.45998H1.26562V6.17204H1.34515C1.36948 6.10461 1.40309 6.07009 1.4471 6.07009C1.4682 6.07009 1.51777 6.0845 1.59504 6.11143C1.78284 6.17738 1.93711 6.20916 2.0584 6.20916C2.2673 6.20916 2.44568 6.13702 2.59432 5.99021C2.74268 5.84354 2.81763 5.66663 2.81763 5.46006C2.81763 5.29988 2.76813 5.15736 2.6711 5.03319C2.574 4.90881 2.38521 4.76417 2.10298 4.59795C1.86026 4.45409 1.70262 4.33688 1.62991 4.24548C1.55707 4.15421 1.51966 4.05331 1.51966 3.9425C1.51966 3.82269 1.56424 3.7265 1.6522 3.65471C1.74023 3.58285 1.85548 3.54727 1.99976 3.54727C2.16211 3.54727 2.29739 3.59481 2.40448 3.6905C2.51142 3.78634 2.5733 3.91916 2.59151 4.08988H2.6711V3.47295H2.59706C2.58806 3.50436 2.5797 3.52454 2.57196 3.53349C2.56451 3.54249 2.55009 3.54727 2.52872 3.54727C2.50298 3.54727 2.45707 3.53659 2.39196 3.51563C2.25239 3.46923 2.12372 3.44532 2.00531 3.44532ZM4.60547 3.44539C4.34299 3.44539 4.10477 3.50642 3.88948 3.62856C3.6739 3.75048 3.50325 3.91965 3.37725 4.1353C3.25139 4.35088 3.18881 4.57988 3.18881 4.82387C3.18881 5.15166 3.29759 5.44374 3.51682 5.69968C3.7362 5.95548 3.99902 6.11488 4.30397 6.17619C4.37372 6.21205 4.47342 6.30458 4.60406 6.45434C4.75123 6.62338 4.87575 6.7453 4.97813 6.81786C5.07835 6.88923 5.18961 6.94367 5.30747 6.97902C5.42426 7.0141 5.55054 7.03133 5.68716 7.03133C5.85246 7.03133 6.00054 7.00299 6.1309 6.94456L6.10165 6.87299C6.02405 6.90003 5.94237 6.91354 5.8602 6.91292C5.74474 6.91292 5.62816 6.87538 5.51123 6.8C5.39452 6.72441 5.24855 6.58027 5.07438 6.36758C4.99254 6.26563 4.93608 6.20136 4.90416 6.17619C5.23779 6.11185 5.51222 5.95231 5.72618 5.69694C5.94014 5.4417 6.04716 5.15033 6.04716 4.82387C6.04716 4.43616 5.90738 4.11041 5.62985 3.84477C5.35219 3.57891 5.01061 3.44539 4.60547 3.44539ZM6.22863 3.44532L6.23285 3.52934C6.40751 3.52934 6.50538 3.58011 6.52732 3.6822C6.53541 3.71877 6.5392 3.78613 6.53984 3.8833L6.53843 5.74095C6.53702 5.8797 6.51703 5.9683 6.47845 6.00673C6.43985 6.04491 6.37467 6.06875 6.28024 6.07831L6.27602 6.16234H8.01787L8.06252 5.74095H7.983C7.96029 5.8557 7.90819 5.93797 7.82529 5.98466C7.74211 6.03177 7.59516 6.05497 7.38281 6.05497H7.21814C7.0271 6.05497 6.91657 5.98677 6.88739 5.84966C6.8815 5.82067 6.87867 5.79114 6.87895 5.76156L6.88598 3.88323C6.88598 3.74471 6.9037 3.6519 6.94041 3.60641C6.97753 3.5612 7.04447 3.53581 7.14136 3.52934L7.13721 3.44532H6.22863ZM4.63338 3.54727C4.9294 3.54727 5.17106 3.66223 5.35774 3.89427C5.54442 4.1263 5.63688 4.44439 5.63688 4.84721C5.63693 5.22877 5.54295 5.53449 5.35493 5.76437C5.16684 5.99415 4.91653 6.10862 4.6054 6.10862C4.30657 6.10862 4.06427 5.99056 3.87837 5.75333C3.69253 5.51609 3.60063 5.20806 3.60063 4.82928C3.60063 4.4401 3.69366 4.12848 3.88111 3.8956C4.06849 3.66301 4.31937 3.54727 4.63338 3.54727ZM8.63895 3.94651C8.59648 3.94651 8.56406 3.96064 8.53988 3.98919C8.51505 4.01759 8.50746 4.05205 8.51611 4.09388C8.52448 4.13438 8.54768 4.16996 8.58452 4.19991C8.62116 4.2298 8.66067 4.24534 8.70314 4.24534C8.7442 4.24534 8.77556 4.2298 8.79806 4.19991C8.82047 4.16991 8.82745 4.13457 8.81902 4.09388C8.8103 4.05205 8.78794 4.01759 8.75341 3.98919C8.71847 3.96064 8.68001 3.94651 8.63895 3.94651ZM9.78757 4.23156C9.71536 4.50556 9.55891 4.65385 9.31866 4.67776L9.3214 4.75623H9.60195L9.59639 5.68435C9.59681 5.84312 9.60173 5.94873 9.61313 6.00252C9.64076 6.13119 9.72598 6.19665 9.8685 6.19665C10.0748 6.19665 10.2912 6.07271 10.5175 5.82484L10.4491 5.76704C10.2857 5.93016 10.1412 6.01215 10.0151 6.01215C9.93755 6.01215 9.88945 5.96813 9.87131 5.88137C9.86619 5.85691 9.86385 5.83196 9.86435 5.80698L9.86716 4.75623H10.2956L10.2914 4.63093H9.8685V4.23156H9.78757ZM11.4442 4.58136C11.2046 4.58136 11.0096 4.69611 10.8581 4.92427C10.7073 5.15279 10.6606 5.40591 10.7199 5.68435C10.7548 5.84748 10.8243 5.97404 10.9306 6.06313C11.0368 6.15221 11.1715 6.19672 11.3325 6.19672C11.4825 6.19672 11.6914 6.15917 11.7792 6.08373C11.8673 6.00835 11.9485 5.88615 12.0234 5.71881L11.9634 5.65686C11.8439 5.87391 11.6025 5.98325 11.4205 5.98325C11.1703 5.98325 11.0171 5.84776 10.96 5.57839C10.9523 5.54201 10.9467 5.50523 10.9432 5.46821C11.2409 5.42166 11.4664 5.33933 11.6187 5.22029C11.7708 5.10125 11.9236 4.97497 11.895 4.84159C11.878 4.76234 11.8363 4.70005 11.7722 4.65294C11.7072 4.60583 11.5385 4.58136 11.4442 4.58136ZM8.82457 4.59099L8.3082 4.70806V4.79891L8.48679 4.7769C8.57334 4.7769 8.62425 4.81557 8.64035 4.89256C8.64577 4.91837 8.64914 4.95451 8.65013 5L8.6445 5.83313C8.64309 5.94845 8.63009 6.01545 8.60407 6.03556C8.57777 6.05572 8.50845 6.0658 8.39609 6.0658L8.39327 6.14434H9.21255L9.21115 6.06587C9.09731 6.06587 9.02355 6.05701 8.99065 6.03971C8.9583 6.02249 8.93609 5.9912 8.92645 5.94331C8.919 5.90872 8.91577 5.84923 8.91527 5.76704L8.91809 4.59099H8.82457ZM11.3131 4.74526C11.3629 4.74526 11.4111 4.76424 11.4596 4.80165C11.5074 4.83898 11.5366 4.88054 11.5461 4.92561C11.5928 5.14709 11.3938 5.30023 10.946 5.38559C10.9332 5.22409 10.9616 5.07741 11.0339 4.94488C11.1057 4.81248 11.1992 4.74526 11.3131 4.74526Z" fill="#003B57"/>
</g>
<defs>
<linearGradient id="paint0_linear_43_9" x1="10.3791" y1="0.368367" x2="10.3791" y2="16.999" gradientUnits="userSpaceOnUse">
<stop stop-color="#97D9F6"/>
<stop offset="0.92" stop-color="#0F80CC"/>
<stop offset="1" stop-color="#0F80CC"/>
</linearGradient>
</defs>
</svg>
