<svg width="14" height="14" viewBox="0 0 14 14" fill="none" xmlns="http://www.w3.org/2000/svg">
<path d="M13.941 2.07339L7.37003 13.8234C7.33917 13.8787 7.29418 13.9247 7.23966 13.9569C7.18514 13.989 7.12305 14.0061 7.05976 14.0063C6.99647 14.0066 6.93424 13.99 6.87947 13.9583C6.82469 13.9266 6.77933 13.8809 6.74803 13.8259L0.0470295 2.07439C0.0133394 2.01543 -0.0028341 1.94808 0.000406891 1.88025C0.00364788 1.81241 0.026169 1.74691 0.0653273 1.69143C0.104486 1.63595 0.158657 1.59278 0.221483 1.567C0.28431 1.54123 0.353187 1.5339 0.42003 1.54589L6.99803 2.72189C7.03985 2.72957 7.08271 2.72957 7.12453 2.72189L13.565 1.54789C13.6316 1.53572 13.7003 1.54274 13.763 1.56811C13.8258 1.59349 13.88 1.63618 13.9194 1.69121C13.9589 1.74624 13.9818 1.81134 13.9856 1.87892C13.9895 1.9465 13.974 2.01427 13.941 2.07339Z" fill="url(#paint0_linear_44_86)"/>
<path d="M10.131 0.0038881L5.269 0.956388C5.23019 0.964226 5.19505 0.98464 5.16902 1.01447C5.14299 1.0443 5.12751 1.08188 5.125 1.12139L4.826 6.17339C4.82435 6.2011 4.82919 6.22882 4.84013 6.25434C4.85107 6.27986 4.86781 6.30247 4.88902 6.32038C4.91024 6.3383 4.93534 6.35101 4.96233 6.35752C4.98932 6.36403 5.01745 6.36416 5.0445 6.35789L6.398 6.04539C6.42716 6.03865 6.45754 6.03935 6.48636 6.04743C6.51518 6.05551 6.5415 6.0707 6.56291 6.09161C6.58432 6.11252 6.60013 6.13848 6.60888 6.1671C6.61763 6.19572 6.61905 6.22608 6.613 6.25539L6.211 8.22489C6.2048 8.25521 6.20658 8.28662 6.21618 8.31604C6.22578 8.34546 6.24287 8.37188 6.26576 8.39271C6.28865 8.41353 6.31657 8.42805 6.34676 8.43483C6.37696 8.44161 6.4084 8.44042 6.438 8.43139L7.274 8.17739C7.30365 8.16832 7.33514 8.16712 7.36539 8.17392C7.39564 8.18073 7.4236 8.19529 7.44651 8.21618C7.46942 8.23707 7.48649 8.26357 7.49604 8.29306C7.5056 8.32256 7.50731 8.35403 7.501 8.38439L6.8615 11.4779C6.8215 11.6714 7.079 11.7769 7.1865 11.6114L7.258 11.5004L11.2205 3.59289C11.2354 3.56309 11.2416 3.52973 11.2385 3.49657C11.2354 3.46342 11.2231 3.43179 11.203 3.40526C11.1829 3.37873 11.1557 3.35836 11.1246 3.34646C11.0935 3.33455 11.0597 3.33158 11.027 3.33789L9.6335 3.60639C9.6035 3.61213 9.57254 3.61008 9.54356 3.60043C9.51458 3.59078 9.48857 3.57386 9.468 3.55129C9.44743 3.52871 9.433 3.50124 9.42608 3.47149C9.41917 3.44175 9.42 3.41072 9.4285 3.38139L10.3375 0.228388C10.3461 0.19896 10.3469 0.167822 10.34 0.137972C10.333 0.108123 10.3185 0.0805687 10.2978 0.0579626C10.2771 0.0353566 10.2509 0.0184608 10.2218 0.00890228C10.1927 -0.000656192 10.1616 -0.00255518 10.1315 0.00338814" fill="url(#paint1_linear_44_86)"/>
<defs>
<linearGradient id="paint0_linear_44_86" x1="-0.116711" y1="1.12582" x2="8.06088" y2="12.2316" gradientUnits="userSpaceOnUse">
<stop stop-color="#41D1FF"/>
<stop offset="1" stop-color="#BD34FE"/>
</linearGradient>
<linearGradient id="paint1_linear_44_86" x1="6.61999" y1="0.262279" x2="8.09927" y2="10.41" gradientUnits="userSpaceOnUse">
<stop stop-color="#FFEA83"/>
<stop offset="0.083" stop-color="#FFDD35"/>
<stop offset="1" stop-color="#FFA800"/>
</linearGradient>
</defs>
</svg>
